#!OML:ASF F:\VICON\USERDATA\INSTALL\rory3\rory3.ASF
:FULLY-SPECIFIED
:DEGREES
133
root 0.6078902499099454 17.586069250025485 31.352068154920918 0.7343836521774822 -2.021295932804858 -0.9302298511375988
lfemur -22.77474951662394 6.211976905232804 -18.837222172267285
ltibia 82.38104317835561
lfoot 0.748112593571364 -9.297526216843366
ltoes -7.544399023209829
rfemur -16.48323108620384 5.20993038117655 30.328606235755988
rtibia 64.35964407151567
rfoot 2.4114662076982745 -5.041392474279757
rtoes 0.14362864217714177
lowerback 14.73487956071905 0.4753134974524778 1.6967317956482615
upperback -0.8595776209839594 0.9175972535877334 1.9535254983282617
thorax -9.308938910831063 1.0311545047316264 0.6177515219922454
lowerneck -20.045168240590485 -4.221009492683277 -2.383428604011594
upperneck 12.594955379785725 -5.683071951979038 5.098183788204251
head 7.314238069610665 -2.531590201552136 1.3586111166060268
lclavicle 2.9801515526439752e-15 1.1900897868484632e-16
lhumerus -48.70759420922413 -11.789269848589573 96.25808948721546
lradius 110.09649816604968
lwrist 34.57948559623337
lhand -20.59102065252814 2.862000540968528
lfingers 7.125019999999999
lthumb 5.550827574616138 32.224572105100535
rclavicle 2.9801381671163078e-15 1.1900166246856291e-16
rhumerus -49.14879971090729 9.620063359808727 -96.16587820146042
rradius 110.27241574310476
rwrist -15.295214734133133
rhand -15.742173185817398 38.456691213381816
rfingers 7.125019999999999
rthumb 10.600009478942864 8.385000868299194
134
root 0.608880874137842 17.59419983303804 32.50449367044634 0.8318703397993561 -1.783220228727544 -0.8489709707415958
lfemur -26.32231164995418 6.050808469803652 -19.316712661538062
ltibia 82.50266553290172
lfoot 0.6699369366188592 -9.547814185605308
ltoes -7.182896554747841
rfemur -13.3557487786421 5.641216219299549 31.18642056960928
rtibia 61.91685695046024
rfoot 1.6720193374807355 -5.164037301304847
rtoes -0.831583789966595
lowerback 14.752260103107547 0.5518851134481717 1.9186278794958254
upperback -0.8200567729476085 1.2265774280728938 2.006507453382662
thorax -9.416731479405374 0.9194763997913044 0.14841266113237467
lowerneck -20.07380036905046 -4.314676539100886 -2.3925072574143442
upperneck 12.577002382722096 -5.748314925249682 5.119152355682916
head 7.325781931898237 -2.5529995383072084 1.3605554520648495
lclavicle 2.9801515526439752e-15 1.1900897868484632e-16
lhumerus -47.37594070523821 -11.360295659170363 96.508079441405
lradius 109.91048774136675
lwrist 34.384493469127705
lhand -20.66754224650409 2.7756994209131562
lfingers 7.125019999999999
lthumb 5.615947488450749 32.347536572132334
rclavicle 2.9801381671163078e-15 1.1900166246856291e-16
rhumerus -48.24527348798712 9.839900989254435 -96.17639600291348
rradius 110.30224762859828
rwrist -15.29391217141795
rhand -15.750472334599044 38.45242238895539
rfingers 7.125019999999999
rthumb 10.580999846998177 8.341079301981582
135
root 0.5999637399073191 17.5542742209105 30.940919953387837 0.7394564170685942 -1.9810991785624248 -1.092377683855645
lfemur -25.91049492562189 6.412772928997806 -18.69382897036512
ltibia 82.04014090098883
lfoot 0.6491394301798667 -9.556759305617309
ltoes -7.069350398397237
rfemur -13.477736790438335 5.300395571631645 31.11564265084762
rtibia 59.792728492191294
rfoot 1.5436935674942425 -5.420858460023086
rtoes -1.1093579969859788
lowerback 14.767084043474409 0.6350106987848267 2.144008492830731
upperback -0.7776904616707978 1.6167930119378007 2.078624410070108
thorax -9.432707214573437 0.935241086962201 -0.23236269492080913
lowerneck -20.058369545998623 -4.391914036779933 -2.404284108698883
upperneck 12.598466176412947 -5.795155399855295 5.19344933607027
head 7.3017409270189475 -2.6063902140286666 1.3481642597853338
lclavicle 2.9801515526439752e-15 1.1900897868484632e-16
lhumerus -48.28608746404075 -11.70591485364026 96.30117778214736
lradius 110.18822898188188
lwrist 34.47456899515826
lhand -20.71597338339481 2.7507521644300477
lfingers 7.125019999999999
lthumb 5.58209129451499 32.31150949790645
rclavicle 2.9801381671163078e-15 1.1900166246856291e-16
rhumerus -47.26695338148338 10.13266286026004 -96.19908647810877
rradius 110.30596114188498
rwrist -15.284911522026226
rhand -15.739771143427477 38.44987744786772
rfingers 7.125019999999999
rthumb 10.630457435466724 8.398714370532927
136
root 0.6111766962928908 17.617788194477736 33.42051319728286 0.9876937496491311 -1.6040431144785778 -0.8771012308638324
lfemur -26.656505105949496 6.205170269859156 -19.092369027896282
ltibia 80.9223094409884
lfoot 1.181375130042629 -9.42421365001027
ltoes -6.772431106928575
rfemur -12.795108572550696 5.12155346789799 30.735929537112614
rtibia 57.83970514430073
rfoot 2.318530937885596 -5.512592699958756
rtoes -0.8546661501826207
lowerback 14.806587316330107 0.7523528355181456 2.3977303584328165
upperback -0.7882137362972507 1.9434290061046662 2.1100649170294465
thorax -9.4025903837926 0.9425939404915544 -0.35767755645524324
lowerneck -19.96253583837022 -4.390698445087633 -2.386550605341365
upperneck 12.591915737033101 -5.845276787042314 5.2604581541511
head 7.2888527903541585 -2.6593860839840033 1.3382069912019443
lclavicle 2.9801515526439752e-15 1.1900897868484632e-16
lhumerus -47.78898016916648 -11.455591757785616 96.4866027357429
lradius 110.2964030969008
lwrist 34.58632021310044
lhand -20.804585045646373 2.7143635010674982
lfingers 7.125019999999999
lthumb 5.628636252671545 32.407018898532655
rclavicle 2.9801381671163078e-15 1.1900166246856291e-16
rhumerus -46.44589432019697 10.444342857018274 -96.26588176937014
rradius 110.18859993988185
rwrist -15.256701994405928
rhand -15.7420293435162 38.42830774875495
rfingers 7.125019999999999
rthumb 10.595175078285825 8.368497968481297
137
root 0.6135195311589006 17.64885543807065 33.18282535867788 1.041475906203126 -1.6019327182451957 -0.9501731285212263
lfemur -26.932864769947713 6.432141604331353 -18.596733359725746
ltibia 78.69281445701343
lfoot 0.08834408335292976 -9.341563329282835
ltoes -6.241529537387075
rfemur -9.99492300616443 5.22808755021615 31.079570448636773
rtibia 56.79774068487898
rfoot 3.4805767299745964 -5.407123323952325
rtoes -0.32328272525942037
lowerback 14.85208481022615 0.8887153090030747 2.666194528005406
upperback -0.8469671637127829 2.09728881693964 2.0937915898499284
thorax -9.237674976100447 1.2101661323586197 -0.046230653012222636
lowerneck -19.904593659483123 -4.420701099495803 -2.400444337328395
upperneck 12.582439357266972 -5.906570905214984 5.329494068047201
head 7.279991842240093 -2.699656183994779 1.3369207002590313
lclavicle 2.9801515526439752e-15 1.1900897868484632e-16
lhumerus -47.489015081467635 -11.181537242547346 96.51998899365476
lradius 110.36961951812077
lwrist 34.43520277293535
lhand -20.899677765707764 2.7121023003486124
lfingers 7.125019999999999
lthumb 5.6336827917908945 32.46053753436098
rclavicle 2.9801381671163078e-15 1.1900166246856291e-16
rhumerus -45.70661917456614 10.801375985238382 -96.31025893498821
rradius 110.04160228476167
rwrist -15.219956322402393
rhand -15.74580795189188 38.42671948020193
rfingers 7.125019999999999
rthumb 10.649915140349176 8.367149798435957
138
root 0.620372225140639 17.69551613190585 34.20926451767835 1.18650830162634 -1.3811344581031235 -0.8631397737898436
lfemur -25.82357944601494 6.5255293947658055 -18.791939169649005
ltibia 75.85233973340581
lfoot 0.924829708878209 -8.923990131258986
ltoes -6.341297736517889
rfemur -10.467077535714306 4.753873090028842 30.718058652575714
rtibia 56.538341077924585
rfoot 5.390211919853939 -4.96141612909884
rtoes 0.31323280284147165
lowerback 14.907119067317955 1.0480574458537106 2.9642081637437
upperback -0.9058319142205636 2.1986633215854408 2.0566121856388238
thorax -9.50325916228029 0.9022649659170314 -0.8946053021992556
lowerneck -19.823359678173905 -4.4273319989305735 -2.4140547571981408
upperneck 12.554200297210386 -5.945869274939286 5.387272746619084
head 7.260853232902549 -2.74473755933974 1.3216480938869246
lclavicle 2.9801515526439752e-15 1.1900897868484632e-16
lhumerus -48.41190852166109 -11.161895170330771 96.33988562614718
lradius 111.0999668415969
lwrist 34.448886013770675
lhand -20.866380532857356 2.8158797422421773
lfingers 7.125019999999999
lthumb 5.62377734917726 32.50688521364889
rclavicle 2.9801381671163078e-15 1.1900166246856291e-16
rhumerus -45.30698350333753 11.1048885974566 -96.3879749405652
rradius 110.11427489410009
rwrist -15.182953077179068
rhand -15.755998506200363 38.41981038868992
rfingers 7.125019999999999
rthumb 10.622968063407795 8.366357618470285
139
root 0.6148216812602794 17.679384054847542 32.293842679556434 1.1239576246989686 -1.6569064108871718 -1.1203410059445327
lfemur -25.336985018583988 6.684740017678199 -18.447804992988672
ltibia 72.97168446045532
lfoot -0.8943296126096627 -9.13127970516458
ltoes -6.72836542376903
rfemur -9.418315925106587 4.970041374547444 30.642718637566585
rtibia 57.07091276118941
rfoot 5.145035700050989 -4.962132056450962
rtoes 0.4878771205872363
lowerback 14.860787041044274 1.129417992998537 3.090565104561739
upperback -0.9166522796980332 2.4642657792456553 2.063862916885285
thorax -9.244222082120718 1.1933834881090315 -0.4864315188587109
lowerneck -19.7784538362275 -4.450811116774189 -2.4321951455777264
upperneck 12.561680453265714 -5.971750000032785 5.444606372601726
head 7.270828565485275 -2.742051046876344 1.3438082306301
lclavicle 2.9801515526439752e-15 1.1900897868484632e-16
lhumerus -48.15686041238781 -10.908342346508855 96.42451224136138
lradius 112.09713086104516
lwrist 34.18804620171092
lhand -20.80707211889053 2.842549597480402
lfingers 7.125019999999999
lthumb 5.635458290687398 32.62790399180247
rclavicle 2.9801381671163078e-15 1.1900166246856291e-16
rhumerus -44.96064296337224 11.456433785930212 -96.43512214497066
rradius 110.30428097119275
rwrist -15.190014918354942
rhand -15.757646980901146 38.43249500656197
rfingers 7.125019999999999
rthumb 10.590980239521437 8.329557157840227
